<svg width="64" height="64" viewBox="0 0 64 64" fill="none" xmlns="http://www.w3.org/2000/svg">
<path d="M58 57C56 55.4 52.6 55.4 50.6 57C48.6 58.6 45.2 58.6 43.2 57C41.2 55.4 37.8 55.4 35.8 57C33.8 58.6 30.4 58.6 28.4 57C26.4 55.4 23 55.4 21 57C19 58.6 15.6 58.6 13.6 57C11.6 55.4 8.20001 55.4 6.20001 57" stroke="#454444" stroke-width="2" stroke-miterlimit="10" stroke-linecap="round" stroke-linejoin="round"/>
<path d="M32 30L10 38L18 58" stroke="#454444" stroke-width="2" stroke-miterlimit="10" stroke-linecap="round" stroke-linejoin="round"/>
<path d="M32 30L54 38L46 58" stroke="#454444" stroke-width="2" stroke-miterlimit="10" stroke-linecap="round" stroke-linejoin="round"/>
<path d="M18 35V22C18 19.8 19.8 18 22 18H42C44.2 18 46 19.8 46 22V35" stroke="#454444" stroke-width="2" stroke-miterlimit="10" stroke-linecap="round" stroke-linejoin="round"/>
<path d="M24 24H40" stroke="#454444" stroke-width="2" stroke-miterlimit="10" stroke-linecap="round" stroke-linejoin="round"/>
<path d="M32 38L12.8 45" stroke="#454444" stroke-width="2" stroke-miterlimit="10" stroke-linecap="round" stroke-linejoin="round"/>
<path d="M32 38L51.2 45" stroke="#454444" stroke-width="2" stroke-miterlimit="10" stroke-linecap="round" stroke-linejoin="round"/>
<path d="M36 18.0001H28V8.0001C30.2 5.8001 33.8 5.8001 36 8.0001V18.0001Z" stroke="#454444" stroke-width="2" stroke-miterlimit="10" stroke-linecap="round" stroke-linejoin="round"/>
</svg>
