<svg width="64" height="64" viewBox="0 0 64 64" fill="none" xmlns="http://www.w3.org/2000/svg">
<path d="M57.975 25.0394L58.8698 16.4852L51.0118 12.9895L47.5174 5.13157L38.9632 6.02501L32 0.979248L25.0381 6.02501L16.4851 5.13157L12.9894 12.9882L5.13152 16.4852L6.02496 25.0381L0.979202 32.0001L6.02496 38.9607L5.13024 47.5149L12.9882 51.0106L16.4826 58.8685L25.0368 57.9751L32 63.0209L38.9619 57.9751L47.5149 58.8685L51.0106 51.0119L58.8685 47.5149L57.975 38.962L63.0208 32.0001L57.975 25.0394ZM56.1293 45.9328L49.0714 49.0727L45.9315 56.1293L38.2528 55.3281L32 59.8593L25.7472 55.3281L18.0672 56.1293L14.9274 49.0714L7.87072 45.9328L8.672 38.2541L4.1408 32.0001L8.67328 25.7473L7.872 18.0672L14.9299 14.9274L18.0698 7.87077L25.7485 8.67205L32 4.14085L38.2528 8.67205L45.9328 7.87077L49.0726 14.9287L56.1293 18.0672L55.328 25.746L59.8592 32.0001L55.3267 38.2529L56.1293 45.9328Z" fill="#454444"/>
<path d="M26.88 40.4301L18.825 32.3751L17.015 34.185L26.88 44.05L49.545 21.385L47.735 19.5751L26.88 40.4301Z" fill="#454444"/>
</svg>
